<svg width="48" height="40" viewBox="0 0 48 40" fill="none" xmlns="http://www.w3.org/2000/svg">
<path d="M21.1412 0.845016C20.6551 0.935131 20.2646 1.26283 20.0734 1.73798L20.0079 1.89636L19.9997 19.8921C19.9943 33.3985 19.9997 37.9261 20.0216 38.0381C20.1308 38.5515 20.5732 38.9993 21.0784 39.1031C21.4061 39.1714 21.8457 39.0949 22.1079 38.9229C22.1707 38.8819 26.4552 35.6978 31.6328 31.8474C36.8103 27.9998 41.0621 24.8485 41.0785 24.8485C41.0949 24.8485 42.149 25.5776 43.4215 26.4678C46.1168 28.3602 45.9065 28.2182 46.1141 28.2892C46.8759 28.5569 47.7116 28.1063 47.9136 27.3171C47.9519 27.1642 47.9573 26.4323 47.9573 19.9822C47.9573 13.6387 47.9519 12.7976 47.9164 12.6556C47.788 12.1641 47.4303 11.7899 46.9415 11.6397C46.6165 11.5414 46.1632 11.6042 45.8546 11.7927C45.7864 11.8336 44.6941 12.5982 43.427 13.4885C42.1572 14.376 41.1058 15.1106 41.0922 15.116C41.0758 15.1215 36.8404 11.9838 31.6819 8.14709C26.5235 4.30763 22.2308 1.12082 22.1434 1.06348C21.8566 0.872322 21.4525 0.784939 21.1412 0.845016ZM31.4635 11.4431C36.2178 14.9767 40.1719 17.9151 40.2538 17.9724C40.6498 18.2482 41.2069 18.3028 41.6301 18.1035C41.7039 18.068 42.5313 17.5027 43.4679 16.8446L45.1719 15.6485V19.9768C45.1719 23.4339 45.1638 24.3023 45.1392 24.2859C45.1201 24.2723 44.3636 23.7452 43.4598 23.1117C42.5586 22.4754 41.7558 21.9266 41.6793 21.8883C41.2779 21.6835 40.8218 21.6862 40.4204 21.8938C40.3385 21.9347 36.3352 24.8976 31.5236 28.4749C26.7147 32.0522 22.7714 34.9796 22.766 34.9796C22.7578 34.9796 22.7523 28.2264 22.7523 19.9713C22.7523 7.96686 22.7605 4.96848 22.7878 4.98759C22.8042 5.00398 26.7092 7.90679 31.4635 11.4431Z" fill="#BDBDBD"/>
<path d="M6.34039 3.63862C5.81608 3.79427 5.61947 3.98542 4.96954 4.9685C3.87451 6.62062 3.07166 8.11162 2.35347 9.82927C1.27481 12.4071 0.605776 15.1051 0.373661 17.8222C-0.0851087 23.2073 1.18743 28.6443 4.05474 33.546C4.49985 34.3052 5.20439 35.3893 5.49658 35.7607C5.9772 36.3723 6.81828 36.5635 7.52828 36.2276C8.36935 35.8262 8.72162 34.7912 8.29835 33.9556C8.26831 33.8955 8.1072 33.6443 7.93789 33.3958C6.49331 31.2767 5.37916 28.9911 4.6637 26.6727C3.3147 22.3007 3.30924 17.7239 4.64731 13.3465C5.35731 11.0308 6.52062 8.63046 7.92424 6.59331C8.38301 5.927 8.48404 5.68123 8.48131 5.22792C8.47585 4.77462 8.32293 4.41142 7.99251 4.07827C7.75493 3.83796 7.51189 3.69596 7.20058 3.61677C6.96028 3.55669 6.58889 3.56489 6.34039 3.63862Z" fill="#BDBDBD"/>
<path d="M11.6108 8.43931C11.2476 8.47208 10.9172 8.61954 10.6468 8.87077C10.1799 9.30496 9.08756 11.1892 8.48952 12.601C7.37536 15.2253 6.8374 18.0052 6.9439 20.6022C7.08044 24.0265 8.27925 27.6667 10.2181 30.5558C10.4912 30.96 10.6141 31.0992 10.8407 31.2494C11.3541 31.588 11.9794 31.6263 12.5338 31.3477C12.8014 31.2112 12.9926 31.0419 13.1619 30.7934C13.3612 30.493 13.4267 30.2609 13.4267 29.8595C13.4267 29.4089 13.3721 29.2423 13.0799 28.8027C11.4169 26.2958 10.4256 23.3493 10.3027 20.5284C10.199 18.1854 10.7451 15.6758 11.8784 13.2618C12.1679 12.6474 12.5147 12.0412 12.9844 11.323C13.3967 10.6895 13.495 10.3754 13.4349 9.89208C13.3885 9.49611 13.211 9.16296 12.9052 8.8735C12.5529 8.54581 12.1023 8.39288 11.6108 8.43931Z" fill="#BDBDBD"/>
<path d="M15.666 13.3492C15.2372 13.4748 14.9341 13.6987 14.6965 14.0647C14.5573 14.2804 14.3415 14.9603 13.9756 16.3421C13.2656 19.0265 13.2465 20.7223 13.891 23.2892C14.1067 24.1548 14.5272 25.5803 14.6201 25.7715C14.7348 26.009 15.0788 26.3586 15.3164 26.4815C16.1438 26.9129 17.1897 26.5852 17.5884 25.7715C17.8642 25.2117 17.856 25.0014 17.512 23.7971C17.0095 22.0385 16.8593 21.3203 16.7992 20.3973C16.7282 19.2995 16.903 18.2837 17.5229 16.1237C17.7932 15.187 17.826 14.9522 17.7441 14.5944C17.5993 13.9827 17.1215 13.4939 16.5125 13.3383C16.294 13.2837 15.8762 13.2891 15.666 13.3492Z" fill="#BDBDBD"/>
</svg>
