<svg width="49" height="49" viewBox="0 0 49 49" fill="none" xmlns="http://www.w3.org/2000/svg">
<path d="M32.8866 10.0733C32.8301 10.0902 32.749 10.1242 32.7076 10.1487C32.6661 10.1732 32.2081 10.6198 31.688 11.1419C30.6062 12.2274 30.6533 12.1671 30.6533 12.4762C30.6533 12.8041 30.4008 12.5252 33.4388 15.5613C36.4749 18.5993 36.196 18.3467 36.5239 18.3467C36.8367 18.3467 36.7934 18.3807 37.9016 17.2687C38.8024 16.366 38.8589 16.3057 38.8985 16.1983C38.9306 16.1154 38.9437 16.0437 38.9437 15.9344C38.9456 15.8025 38.9381 15.7667 38.8834 15.6517C38.8231 15.5255 38.7214 15.4199 36.1507 12.8493C33.6329 10.3315 33.4727 10.175 33.3559 10.1204C33.2013 10.0488 33.0355 10.0318 32.8866 10.0733Z" fill="black"/>
<path d="M29.1456 13.8727C29.0947 13.8802 29.0137 13.9009 28.9666 13.9198C28.8931 13.9462 27.7152 15.1165 20.3011 22.5287C12.6552 30.1708 11.7148 31.1188 11.6639 31.2187C11.6187 31.311 11.4491 32.0215 10.8159 34.7617C10.0658 38.0033 10.0224 38.1993 10.03 38.335C10.0488 38.6855 10.3164 38.9512 10.6651 38.9701C10.8008 38.9757 11.0024 38.9324 14.2289 38.1861C16.1097 37.7526 17.6966 37.3776 17.7531 37.3531C17.8474 37.3135 18.5918 36.5747 26.4261 28.7423C33.663 21.5072 35.0068 20.1579 35.0577 20.0617C35.1161 19.9543 35.1199 19.9392 35.1199 19.7508C35.1199 19.5812 35.1123 19.5397 35.0746 19.4587C35.0388 19.3833 34.5187 18.8518 32.3608 16.692C30.8927 15.222 29.6545 13.9952 29.6074 13.965C29.4811 13.884 29.3002 13.8482 29.1456 13.8727ZM16.0702 36.3373C16.0589 36.3448 15.5406 36.4673 14.9205 36.6087L13.7917 36.8687L12.9624 36.0376L12.1313 35.2084L12.3914 34.0795C12.5346 33.4595 12.6552 32.9412 12.6609 32.9261C12.6665 32.911 13.3224 33.5537 14.3815 34.6129C15.4539 35.6852 16.0852 36.3297 16.0702 36.3373Z" fill="black"/>
</svg>
