<svg width="53" height="53" viewBox="0 0 63 63" fill="none" xmlns="http://www.w3.org/2000/svg">
<path d="M29.2319 9.88853C28.4372 10.0242 27.8047 10.5985 27.5939 11.3763C27.5431 11.5629 27.5406 11.6186 27.5309 12.9804L27.5237 14.393L27.4583 14.4076C26.0747 14.7371 24.9601 15.1297 23.8818 15.67C23.6831 15.7693 23.5135 15.8396 23.5062 15.8275C23.4989 15.8154 23.1064 15.3453 22.6339 14.7831C22.1057 14.1532 21.7156 13.7097 21.6162 13.6273C21.4224 13.465 21.088 13.2954 20.8263 13.2275C20.5549 13.1573 20.126 13.1573 19.8571 13.2275C19.6293 13.2881 19.3506 13.4141 19.1834 13.5353C19.0817 13.608 17.5042 14.9261 17.0996 15.275C16.8185 15.5173 16.6053 15.8566 16.4866 16.2515C16.4284 16.4357 16.4211 16.5084 16.4211 16.7798C16.4211 17.1384 16.4696 17.3637 16.6077 17.6521C16.7167 17.8823 16.7846 17.9695 17.7078 19.0672L18.5074 20.0218L18.2796 20.3247C17.543 21.2988 16.7967 22.5855 16.3896 23.5813C16.3533 23.6734 16.3339 23.6928 16.2951 23.6855C16.2685 23.6783 15.6845 23.5741 14.9988 23.4529C13.9254 23.2615 13.7146 23.23 13.4844 23.23C12.8616 23.23 12.3043 23.5014 11.9069 24.0005C11.7664 24.1774 11.5968 24.5263 11.5459 24.742C11.4562 25.1345 11.0661 27.4171 11.0564 27.6255C11.0419 27.8872 11.0855 28.1513 11.1849 28.4202C11.386 28.9582 11.8633 29.4185 12.4061 29.5978C12.5054 29.6293 13.1451 29.7553 13.8236 29.8765C14.5045 29.9952 15.0836 30.0994 15.1151 30.1067C15.1636 30.1188 15.1684 30.1333 15.1684 30.3078C15.1684 30.5186 15.2266 31.2649 15.2653 31.5872C15.3792 32.5104 15.5852 33.5208 15.796 34.1896C15.842 34.3325 15.842 34.3495 15.8081 34.3762C15.7863 34.3907 15.2896 34.6815 14.7056 35.0183C14.1192 35.3551 13.5692 35.6846 13.4819 35.75C12.9198 36.1692 12.6096 36.9543 12.7308 37.6497C12.7526 37.7757 12.8011 37.9575 12.8398 38.0544C12.9004 38.2119 14.1241 40.366 14.3058 40.635C14.5554 41.0057 14.9527 41.294 15.4107 41.4394C15.5682 41.4879 15.6409 41.4952 15.968 41.4952C16.5471 41.4952 16.552 41.4927 18.0082 40.6519C18.5777 40.3224 19.0477 40.0534 19.055 40.0534C19.0599 40.0534 19.1301 40.1213 19.2077 40.2037C20.1357 41.2044 21.0153 41.9652 22.0402 42.6631L22.3601 42.8787L21.9142 44.1C21.4296 45.4375 21.403 45.5417 21.4272 45.9439C21.4636 46.5594 21.764 47.1046 22.2607 47.4583C22.474 47.6134 22.5927 47.6619 23.9206 48.1441C25.2847 48.6384 25.3066 48.6457 25.5779 48.6796C25.9608 48.728 26.4551 48.619 26.8089 48.4082C27.1069 48.2337 27.4146 47.9018 27.5746 47.5892C27.6061 47.5286 27.8193 46.964 28.0495 46.334C28.2772 45.704 28.4711 45.1831 28.4759 45.1758C28.4832 45.171 28.5971 45.1807 28.7279 45.2C29.0817 45.2533 29.6414 45.3091 30.0946 45.3357C30.9184 45.3842 31.4418 45.3624 32.7357 45.2243L32.869 45.2097L33.2664 46.3074C33.7122 47.5407 33.7558 47.6425 33.8988 47.8533C34.3495 48.5172 35.1782 48.8565 35.9584 48.6917C36.1619 48.6481 38.6141 47.7637 38.8273 47.657C39.3531 47.3905 39.7578 46.8647 39.8862 46.2686C39.9322 46.0554 39.925 45.6265 39.8717 45.4205C39.8474 45.326 39.6827 44.8463 39.5034 44.3544C39.3241 43.8601 39.1399 43.3585 39.0963 43.2349L39.0139 43.012L39.3943 42.76C40.3393 42.1324 41.1099 41.5 41.924 40.6762L42.4038 40.194L43.4021 40.7682C44.5676 41.4418 44.6548 41.4879 44.9117 41.5606C45.1782 41.6357 45.6701 41.6381 45.9463 41.5606C46.3316 41.4564 46.712 41.2141 46.9592 40.9209C47.0876 40.7658 48.3597 38.6044 48.5124 38.2749C48.6602 37.9599 48.728 37.5358 48.682 37.2087C48.6456 36.9519 48.5342 36.632 48.4082 36.4164C48.2967 36.225 48.0059 35.9148 47.8315 35.7961C47.7709 35.7549 47.2645 35.4593 46.7048 35.1346C46.145 34.8123 45.6846 34.5458 45.6822 34.5433C45.6798 34.5409 45.7161 34.4149 45.7622 34.2623C45.9536 33.6347 46.1256 32.8835 46.2298 32.2196C46.3171 31.6817 46.3534 31.3158 46.4164 30.429L46.4309 30.2206L46.5061 30.206C46.5497 30.1988 47.0852 30.1043 47.6982 29.9977C48.8613 29.7965 49.1642 29.7214 49.4113 29.5785C49.8329 29.3386 50.1746 28.9242 50.3272 28.4735C50.4823 28.0083 50.4726 27.8653 50.194 26.2782C50.0656 25.5586 49.9468 24.9043 49.9274 24.8244C49.8426 24.4827 49.5494 24.0296 49.2659 23.8067C49.0842 23.6589 48.8613 23.5353 48.6553 23.465C48.1828 23.3003 48.0277 23.3075 46.523 23.5741C45.8494 23.6928 45.2921 23.7825 45.2824 23.7752C45.2751 23.7655 45.2218 23.6492 45.1661 23.5159C44.759 22.5467 44.0588 21.3327 43.3754 20.4144C43.247 20.2399 43.1331 20.0848 43.1234 20.0703C43.1113 20.0509 43.3924 19.6972 43.9109 19.0793C44.3544 18.5535 44.7639 18.0543 44.8196 17.9719C45.0256 17.6666 45.1419 17.2765 45.1419 16.8767C45.1419 16.3872 44.9941 15.9705 44.6887 15.5925C44.5603 15.435 42.634 13.797 42.3408 13.5983C41.7253 13.1767 40.8894 13.1403 40.2424 13.5038C39.9492 13.6685 39.8111 13.8091 39.0042 14.7686C38.5681 15.2896 38.1852 15.7451 38.1537 15.7863L38.098 15.859L37.64 15.6361C36.5642 15.1127 35.4883 14.7274 34.3592 14.4657L34.0805 14.4003L34.066 12.9973C34.0514 11.4999 34.0514 11.4999 33.9206 11.1461C33.7655 10.7221 33.3681 10.2859 32.9368 10.0703C32.869 10.0363 32.7163 9.97819 32.5976 9.94184L32.3844 9.874L30.8699 9.87157C30.0364 9.86915 29.2998 9.87642 29.2319 9.88853ZM31.8755 20.4386C33.0483 20.601 34.1023 20.9475 35.074 21.4902C37.3686 22.7745 38.9872 24.9819 39.4937 27.5261C39.6294 28.207 39.6536 28.4614 39.6536 29.3071C39.6536 30.0946 39.6415 30.24 39.5421 30.8215C39.1108 33.3124 37.6715 35.4714 35.5222 36.8453C34.3761 37.5795 33.0289 38.0447 31.6211 38.1925C31.1801 38.2385 30.1891 38.2313 29.7553 38.1804C28.2918 38.0035 27.0051 37.5383 25.8178 36.7508C24.4682 35.8567 23.3899 34.6185 22.6945 33.167C22.2462 32.239 21.9918 31.3473 21.8634 30.2884C21.8125 29.8547 21.8052 28.8612 21.8512 28.4227C22.0257 26.7507 22.6242 25.2339 23.6298 23.8988C24.4342 22.835 25.5271 21.924 26.7265 21.323C27.7805 20.7948 28.7812 20.5162 30.0582 20.3926C30.3175 20.3683 31.5993 20.3998 31.8755 20.4386Z" fill="#66ACF7"/>
<path d="M30.1067 24.776C28.5608 25.0231 27.3032 25.9366 26.6393 27.296C26.0117 28.585 26.0214 30.0655 26.6708 31.3522C27.3008 32.6073 28.4566 33.4918 29.8401 33.7753C31.4588 34.1097 33.1646 33.5136 34.2308 32.2439C34.9698 31.3619 35.3357 30.303 35.2969 29.1496C35.2824 28.665 35.2218 28.3209 35.074 27.8751C34.8438 27.1772 34.5191 26.6417 34.0006 26.1111C33.3294 25.4253 32.5588 25.011 31.5775 24.8099C31.2601 24.7445 30.4265 24.7251 30.1067 24.776Z" fill="#66ACF7"/>
</svg>
