<svg width="61" height="61" viewBox="0 0 71 71" fill="none" xmlns="http://www.w3.org/2000/svg">
<path d="M32.1411 13.845C31.655 13.9351 31.2645 14.2628 31.0734 14.738L31.0078 14.8964L30.9997 32.8921C30.9942 46.3985 30.9997 50.9261 31.0215 51.0381C31.1307 51.5515 31.5731 51.9993 32.0783 52.1031C32.406 52.1714 32.8457 52.0949 33.1078 51.9229C33.1706 51.8819 37.4552 48.6978 42.6327 44.8474C47.8103 40.9998 52.0621 37.8485 52.0785 37.8485C52.0948 37.8485 53.1489 38.5776 54.4215 39.4678C57.1167 41.3602 56.9065 41.2182 57.114 41.2892C57.8759 41.5569 58.7115 41.1063 58.9136 40.3171C58.9518 40.1642 58.9573 39.4323 58.9573 32.9822C58.9573 26.6387 58.9518 25.7976 58.9163 25.6556C58.788 25.1641 58.4302 24.7899 57.9414 24.6397C57.6165 24.5414 57.1632 24.6042 56.8546 24.7927C56.7863 24.8336 55.694 25.5982 54.4269 26.4885C53.1571 27.376 52.1058 28.1106 52.0921 28.116C52.0757 28.1215 47.8403 24.9838 42.6819 21.1471C37.5235 17.3076 33.2307 14.1208 33.1433 14.0635C32.8566 13.8723 32.4524 13.7849 32.1411 13.845ZM42.4634 24.4431C47.2177 27.9767 51.1718 30.9151 51.2538 30.9724C51.6497 31.2482 52.2068 31.3028 52.6301 31.1035C52.7038 31.068 53.5312 30.5027 54.4679 29.8446L56.1719 28.6485V32.9768C56.1719 36.4339 56.1637 37.3023 56.1391 37.2859C56.12 37.2723 55.3636 36.7452 54.4597 36.1117C53.5585 35.4754 52.7557 34.9266 52.6792 34.8883C52.2778 34.6835 51.8218 34.6862 51.4203 34.8938C51.3384 34.9347 47.3351 37.8976 42.5235 41.4749C37.7146 45.0522 33.7714 47.9796 33.7659 47.9796C33.7577 47.9796 33.7523 41.2264 33.7523 32.9713C33.7523 20.9669 33.7605 17.9685 33.7878 17.9876C33.8042 18.004 37.7092 20.9068 42.4634 24.4431Z" fill="#BDBDBD"/>
<path d="M17.3403 16.6386C16.816 16.7943 16.6194 16.9854 15.9695 17.9685C14.8744 19.6206 14.0716 21.1116 13.3534 22.8293C12.2748 25.4071 11.6057 28.1051 11.3736 30.8222C10.9148 36.2073 12.1874 41.6443 15.0547 46.546C15.4998 47.3052 16.2043 48.3893 16.4965 48.7607C16.9771 49.3723 17.8182 49.5635 18.5282 49.2276C19.3693 48.8262 19.7216 47.7912 19.2983 46.9556C19.2683 46.8955 19.1071 46.6443 18.9378 46.3958C17.4933 44.2767 16.3791 41.9911 15.6636 39.6727C14.3146 35.3007 14.3092 30.7239 15.6473 26.3465C16.3573 24.0308 17.5206 21.6305 18.9242 19.5933C19.3829 18.927 19.484 18.6812 19.4813 18.2279C19.4758 17.7746 19.3229 17.4114 18.9924 17.0783C18.7549 16.838 18.5118 16.696 18.2005 16.6168C17.9602 16.5567 17.5888 16.5649 17.3403 16.6386Z" fill="#BDBDBD"/>
<path d="M22.6107 21.4393C22.2475 21.4721 21.917 21.6195 21.6467 21.8708C21.1797 22.305 20.0874 24.1892 19.4894 25.601C18.3752 28.2253 17.8373 31.0052 17.9438 33.6022C18.0803 37.0265 19.2791 40.6667 21.218 43.5558C21.491 43.96 21.6139 44.0992 21.8406 44.2494C22.354 44.588 22.9793 44.6263 23.5337 44.3477C23.8013 44.2112 23.9924 44.0419 24.1617 43.7934C24.3611 43.493 24.4266 43.2609 24.4266 42.8595C24.4266 42.4089 24.372 42.2423 24.0798 41.8027C22.4168 39.2958 21.4255 36.3493 21.3026 33.5284C21.1989 31.1854 21.745 28.6758 22.8783 26.2618C23.1677 25.6474 23.5145 25.0412 23.9842 24.323C24.3966 23.6895 24.4949 23.3754 24.4348 22.8921C24.3884 22.4961 24.2109 22.163 23.905 21.8735C23.5528 21.5458 23.1022 21.3929 22.6107 21.4393Z" fill="#BDBDBD"/>
<path d="M26.6659 26.3492C26.2372 26.4748 25.9341 26.6987 25.6965 27.0647C25.5572 27.2804 25.3415 27.9603 24.9756 29.3421C24.2656 32.0265 24.2464 33.7223 24.8909 36.2892C25.1066 37.1548 25.5272 38.5803 25.62 38.7715C25.7347 39.009 26.0788 39.3586 26.3164 39.4815C27.1438 39.9129 28.1897 39.5852 28.5884 38.7715C28.8642 38.2117 28.856 38.0014 28.5119 36.7971C28.0094 35.0385 27.8592 34.3203 27.7992 33.3973C27.7282 32.2995 27.9029 31.2837 28.5228 29.1237C28.7932 28.187 28.8259 27.9522 28.744 27.5944C28.5993 26.9827 28.1214 26.4939 27.5124 26.3383C27.294 26.2837 26.8762 26.2891 26.6659 26.3492Z" fill="#BDBDBD"/>
</svg>
