<svg width="58" height="37" viewBox="0 0 58 37" fill="none" xmlns="http://www.w3.org/2000/svg">
<path d="M48.148 2.72687C56.8286 11.4242 56.8286 25.5759 48.148 34.2733C46.8852 35.5385 48.7952 37.4547 50.0592 36.1882C59.8189 26.4095 59.8179 10.5895 50.0592 0.811972C48.7967 -0.45298 46.8834 1.4599 48.148 2.72687Z" fill="#66ACF7"/>
<path d="M43.9734 6.90951C50.3521 13.3005 50.3521 23.6996 43.9734 30.0906C42.7108 31.3556 44.6201 33.2722 45.8846 32.0055C53.3399 24.5359 53.341 12.4654 45.8846 4.99455C44.6218 3.72959 42.709 5.64272 43.9734 6.90951Z" fill="#66ACF7"/>
<path d="M39.7988 11.0921C43.8757 15.1769 43.8757 21.8232 39.7988 25.9079C38.536 27.1731 40.4459 29.0894 41.71 27.8228C46.8563 22.6665 46.8569 14.3342 41.71 9.17723C40.4474 7.91216 38.5344 9.82542 39.7988 11.0921Z" fill="#66ACF7"/>
<path d="M35.6241 15.2749C37.3991 17.0533 37.3991 19.9469 35.6241 21.7253C34.3613 22.9905 36.2713 24.9067 37.5353 23.6402C40.3642 20.8059 40.3642 16.1943 37.5353 13.36C36.2726 12.0948 34.36 14.0084 35.6241 15.2749Z" fill="#66ACF7"/>
<path d="M7.94077 0.811735C-1.81752 10.5886 -1.81943 26.409 7.94077 36.1879C9.20355 37.4532 11.1161 35.5396 9.85199 34.273C1.17133 25.5757 1.17133 11.424 9.85199 2.72664C11.1145 1.46166 9.20522 -0.455149 7.94077 0.811735Z" fill="#66ACF7"/>
<path d="M12.1154 4.99456C4.66001 12.4644 4.65892 24.5347 12.1154 32.0055C13.3781 33.2707 15.2907 31.3571 14.0266 30.0906C7.64784 23.6996 7.64784 13.3005 14.0266 6.90952C15.2892 5.64444 13.3797 3.72798 12.1154 4.99456Z" fill="#66ACF7"/>
<path d="M16.2899 9.17723C11.1437 14.3335 11.1429 22.6659 16.2899 27.8228C17.5526 29.0881 19.4652 27.1744 18.2011 25.9079C14.1111 21.8101 14.1106 15.1906 18.2011 11.0922C19.4639 9.82702 17.554 7.9107 16.2899 9.17723Z" fill="#66ACF7"/>
<path d="M20.4646 13.3599C15.717 18.1167 20.1578 25.8625 22.3758 23.6402C22.9036 23.1114 22.9036 22.2541 22.3758 21.7253C20.6008 19.9469 20.6008 17.0532 22.3758 15.2748C23.6384 14.0099 21.729 12.0931 20.4646 13.3599Z" fill="#66ACF7"/>
<path d="M29.0592 15.5622C30.6787 15.5622 31.9916 16.8776 31.9916 18.5003C31.9916 20.123 30.6787 21.4384 29.0592 21.4384C27.4396 21.4384 26.1267 20.123 26.1267 18.5003C26.1267 16.8776 27.4396 15.5622 29.0592 15.5622Z" fill="#66ACF7"/>
</svg>
